# Blender v2.75 (sub 0) OBJ File: ''
# www.blender.org
mtllib boneco_rigido.mtl
o Cube.001
v 0.004913 -0.102668 1.439849
v 0.004913 0.848592 0.186553
v 0.049532 -0.099904 1.441947
v 0.049532 0.851356 0.188651
v 0.092436 -0.091718 1.448161
v 0.092436 0.859542 0.194864
v 0.131977 -0.078425 1.458251
v 0.131977 0.872836 0.204954
v 0.166635 -0.060534 1.471829
v 0.166635 0.890726 0.218533
v 0.195077 -0.038735 1.488375
v 0.195077 0.912525 0.235078
v 0.216212 -0.013865 1.507252
v 0.216212 0.937395 0.253955
v 0.229227 0.013121 1.527734
v 0.229227 0.964381 0.274437
v 0.233622 0.041185 1.549035
v 0.233622 0.992446 0.295739
v 0.229227 0.069250 1.570336
v 0.229227 1.020510 0.317040
v 0.216212 0.096236 1.590819
v 0.216212 1.047496 0.337522
v 0.195077 0.121106 1.609696
v 0.195077 1.072366 0.356399
v 0.166635 0.142905 1.626241
v 0.166635 1.094165 0.372945
v 0.131977 0.160795 1.639820
v 0.131977 1.112056 0.386523
v 0.092436 0.174088 1.649910
v 0.092436 1.125349 0.396613
v 0.049532 0.182275 1.656123
v 0.049532 1.133535 0.402826
v 0.004913 0.185039 1.658221
v 0.004913 1.136299 0.404924
v -0.039706 0.182275 1.656123
v -0.039706 1.133535 0.402826
v -0.082610 0.174088 1.649910
v -0.082610 1.125349 0.396613
v -0.122151 0.160795 1.639820
v -0.122151 1.112055 0.386523
v -0.156809 0.142905 1.626241
v -0.156809 1.094165 0.372945
v -0.185251 0.121106 1.609696
v -0.185251 1.072366 0.356399
v -0.206386 0.096236 1.590819
v -0.206386 1.047496 0.337522
v -0.219401 0.069250 1.570336
v -0.219401 1.020510 0.317040
v -0.223796 0.041185 1.549035
v -0.223796 0.992445 0.295738
v -0.219401 0.013121 1.527734
v -0.219401 0.964381 0.274437
v -0.206386 -0.013865 1.507252
v -0.206386 0.937395 0.253955
v -0.185251 -0.038735 1.488375
v -0.185251 0.912524 0.235078
v -0.156808 -0.060535 1.471829
v -0.156808 0.890726 0.218532
v -0.122150 -0.078425 1.458251
v -0.122150 0.872836 0.204954
v -0.082610 -0.091718 1.448161
v -0.082610 0.859542 0.194864
v -0.039705 -0.099904 1.441947
v -0.039705 0.851356 0.188651
v 0.004913 0.287828 -1.410804
v 0.004913 1.154261 -0.097434
v 0.049532 0.284931 -1.408893
v 0.049532 1.151364 -0.095523
v 0.092436 0.276353 -1.403234
v 0.092436 1.142786 -0.089863
v 0.131977 0.262422 -1.394044
v 0.131977 1.128855 -0.080673
v 0.166635 0.243675 -1.381676
v 0.166635 1.110108 -0.068306
v 0.195077 0.220830 -1.366606
v 0.195077 1.087264 -0.053235
v 0.216212 0.194768 -1.349412
v 0.216212 1.061201 -0.036042
v 0.229227 0.166489 -1.330756
v 0.229227 1.032922 -0.017386
v 0.233622 0.137079 -1.311355
v 0.233622 1.003512 0.002016
v 0.229227 0.107669 -1.291953
v 0.229227 0.974102 0.021417
v 0.216212 0.079390 -1.273297
v 0.216212 0.945823 0.040073
v 0.195077 0.053328 -1.256104
v 0.195077 0.919761 0.057267
v 0.166635 0.030484 -1.241034
v 0.166635 0.896917 0.072337
v 0.131977 0.011736 -1.228666
v 0.131977 0.878169 0.084705
v 0.092436 -0.002195 -1.219476
v 0.092436 0.864238 0.093895
v 0.049532 -0.010773 -1.213816
v 0.049532 0.855660 0.099554
v 0.004913 -0.013670 -1.211905
v 0.004913 0.852763 0.101465
v -0.039706 -0.010773 -1.213816
v -0.039706 0.855660 0.099554
v -0.082610 -0.002195 -1.219476
v -0.082610 0.864238 0.093895
v -0.122151 0.011736 -1.228666
v -0.122151 0.878169 0.084705
v -0.156809 0.030484 -1.241034
v -0.156809 0.896917 0.072337
v -0.185251 0.053328 -1.256104
v -0.185251 0.919761 0.057267
v -0.206386 0.079390 -1.273297
v -0.206386 0.945823 0.040073
v -0.219401 0.107669 -1.291953
v -0.219401 0.974102 0.021417
v -0.223796 0.137079 -1.311355
v -0.223796 1.003512 0.002016
v -0.219401 0.166489 -1.330757
v -0.219401 1.032922 -0.017386
v -0.206386 0.194768 -1.349413
v -0.206386 1.061201 -0.036042
v -0.185251 0.220831 -1.366606
v -0.185251 1.087264 -0.053235
v -0.156808 0.243675 -1.381676
v -0.156808 1.110108 -0.068306
v -0.122150 0.262422 -1.394044
v -0.122150 1.128855 -0.080673
v -0.082610 0.276353 -1.403234
v -0.082610 1.142786 -0.089863
v -0.039705 0.284931 -1.408893
v -0.039705 1.151364 -0.095523
v 0.004913 2.146719 -1.761662
v 0.004913 3.391817 0.125703
v 0.049532 2.143430 -1.759492
v 0.049532 3.388528 0.127872
v 0.092436 2.133689 -1.753066
v 0.092436 3.378787 0.134299
v 0.131977 2.117871 -1.742630
v 0.131977 3.362968 0.144734
v 0.166635 2.096582 -1.728586
v 0.166635 3.341680 0.158778
v 0.195077 2.070642 -1.711474
v 0.195077 3.315740 0.175891
v 0.216212 2.041048 -1.691950
v 0.216212 3.286145 0.195415
v 0.229227 2.008935 -1.670765
v 0.229227 3.254033 0.216599
v 0.233622 1.975540 -1.648734
v 0.233622 3.220638 0.238630
v 0.229227 1.942144 -1.626703
v 0.229227 3.187242 0.260661
v 0.216212 1.910032 -1.605519
v 0.216212 3.155130 0.281846
v 0.195077 1.880437 -1.585995
v 0.195077 3.125535 0.301369
v 0.166635 1.854497 -1.568882
v 0.166635 3.099595 0.318482
v 0.131977 1.833209 -1.554838
v 0.131977 3.078307 0.332526
v 0.092436 1.817390 -1.544403
v 0.092436 3.062488 0.342962
v 0.049532 1.807649 -1.537977
v 0.049532 3.052747 0.349388
v 0.004913 1.804360 -1.535807
v 0.004913 3.049458 0.351558
v -0.039706 1.807649 -1.537977
v -0.039706 3.052747 0.349388
v -0.082610 1.817390 -1.544403
v -0.082610 3.062488 0.342962
v -0.122151 1.833209 -1.554839
v -0.122151 3.078307 0.332526
v -0.156809 1.854497 -1.568882
v -0.156809 3.099595 0.318482
v -0.185251 1.880437 -1.585995
v -0.185251 3.125535 0.301369
v -0.206386 1.910032 -1.605519
v -0.206386 3.155130 0.281845
v -0.219401 1.942144 -1.626703
v -0.219401 3.187242 0.260661
v -0.223796 1.975540 -1.648734
v -0.223796 3.220638 0.238630
v -0.219401 2.008935 -1.670765
v -0.219401 3.254033 0.216599
v -0.206386 2.041048 -1.691950
v -0.206386 3.286145 0.195414
v -0.185251 2.070642 -1.711474
v -0.185251 3.315740 0.175891
v -0.156808 2.096582 -1.728586
v -0.156808 3.341680 0.158778
v -0.122150 2.117871 -1.742630
v -0.122150 3.362968 0.144734
v -0.082610 2.133689 -1.753066
v -0.082610 3.378787 0.134299
v -0.039705 2.143430 -1.759492
v -0.039705 3.388528 0.127872
v 0.004913 1.832428 1.816961
v 0.004913 3.066881 -0.077383
v 0.049532 1.835730 1.819112
v 0.049532 3.070182 -0.075232
v 0.092436 1.845507 1.825484
v 0.092436 3.079959 -0.068861
v 0.131977 1.861384 1.835830
v 0.131977 3.095837 -0.058514
v 0.166635 1.882751 1.849754
v 0.166635 3.117204 -0.044590
v 0.195077 1.908787 1.866720
v 0.195077 3.143240 -0.027624
v 0.216212 1.938491 1.886077
v 0.216212 3.172944 -0.008267
v 0.229227 1.970722 1.907081
v 0.229227 3.205175 0.012736
v 0.233622 2.004241 1.928923
v 0.233622 3.238694 0.034579
v 0.229227 2.037760 1.950766
v 0.229227 3.272213 0.056421
v 0.216212 2.069991 1.971769
v 0.216212 3.304444 0.077425
v 0.195077 2.099695 1.991126
v 0.195077 3.334148 0.096782
v 0.166635 2.125731 2.008092
v 0.166635 3.360184 0.113748
v 0.131977 2.147099 2.022016
v 0.131977 3.381551 0.127672
v 0.092436 2.162976 2.032362
v 0.092436 3.397428 0.138018
v 0.049532 2.172753 2.038734
v 0.049532 3.407205 0.144390
v 0.004913 2.176054 2.040885
v 0.004913 3.410507 0.146541
v -0.039706 2.172753 2.038734
v -0.039706 3.407205 0.144390
v -0.082610 2.162976 2.032362
v -0.082610 3.397428 0.138018
v -0.122151 2.147098 2.022016
v -0.122151 3.381551 0.127672
v -0.156809 2.125731 2.008092
v -0.156809 3.360184 0.113748
v -0.185251 2.099695 1.991126
v -0.185251 3.334148 0.096782
v -0.206386 2.069991 1.971769
v -0.206386 3.304444 0.077425
v -0.219401 2.037760 1.950766
v -0.219401 3.272213 0.056421
v -0.223796 2.004241 1.928923
v -0.223796 3.238694 0.034579
v -0.219401 1.970722 1.907080
v -0.219401 3.205174 0.012736
v -0.206386 1.938491 1.886077
v -0.206386 3.172944 -0.008267
v -0.185251 1.908787 1.866720
v -0.185251 3.143239 -0.027624
v -0.156808 1.882751 1.849754
v -0.156808 3.117204 -0.044590
v -0.122150 1.861384 1.835830
v -0.122150 3.095837 -0.058514
v -0.082610 1.845507 1.825484
v -0.082610 3.079959 -0.068861
v -0.039705 1.835730 1.819112
v -0.039705 3.070182 -0.075232
v -0.643651 3.759808 0.854467
v -0.643651 5.067947 0.854467
v -0.643651 3.759808 -0.536715
v -0.643651 5.067947 -0.536715
v 0.575675 3.759808 0.854467
v 0.575675 5.067947 0.854467
v 0.575675 3.759808 -0.536715
v 0.575675 5.067947 -0.536715
v 0.290822 0.052941 -0.220673
v 0.290822 0.052941 0.527751
v -0.315193 0.052941 0.527750
v -0.315193 0.052941 -0.220673
v 0.290822 5.021813 -0.220673
v 0.290821 5.021813 0.527751
v -0.315193 5.021813 0.527750
v -0.315193 5.021813 -0.220673
v -0.315193 5.021813 -0.220673
vn 0.077500 -0.794100 -0.602800
vn 0.232900 -0.774600 -0.588000
vn 0.388900 -0.733900 -0.557000
vn 0.543800 -0.668500 -0.507400
vn 0.693300 -0.574000 -0.435700
vn 0.828100 -0.446500 -0.338900
vn 0.933500 -0.285600 -0.216800
vn 0.992300 -0.098600 -0.074800
vn 0.992300 0.098600 0.074800
vn 0.933500 0.285600 0.216800
vn 0.828100 0.446500 0.338900
vn 0.693300 0.574000 0.435700
vn 0.543800 0.668500 0.507400
vn 0.388900 0.733900 0.557000
vn 0.232900 0.774600 0.587900
vn 0.077500 0.794100 0.602800
vn -0.077500 0.794100 0.602800
vn -0.232900 0.774600 0.587900
vn -0.388900 0.733900 0.557000
vn -0.543800 0.668500 0.507400
vn -0.693300 0.574000 0.435700
vn -0.828100 0.446500 0.338900
vn -0.933500 0.285600 0.216800
vn -0.992300 0.098600 0.074800
vn -0.992300 -0.098600 -0.074800
vn -0.933500 -0.285600 -0.216800
vn -0.828100 -0.446500 -0.338900
vn -0.693300 -0.574000 -0.435700
vn -0.543800 -0.668500 -0.507400
vn -0.388900 -0.733900 -0.557000
vn -0.000000 0.604600 -0.796500
vn -0.077500 -0.794100 -0.602800
vn -0.232900 -0.774600 -0.587900
vn -0.000000 -0.604600 0.796500
vn 0.077500 0.832200 -0.549000
vn 0.232900 0.811800 -0.535500
vn 0.388900 0.769000 -0.507300
vn 0.543800 0.700500 -0.462100
vn 0.693400 0.601500 -0.396800
vn 0.828100 0.467900 -0.308700
vn 0.933500 0.299300 -0.197500
vn 0.992300 0.103300 -0.068200
vn 0.992300 -0.103300 0.068200
vn 0.933500 -0.299300 0.197500
vn 0.828100 -0.467900 0.308700
vn 0.693300 -0.601500 0.396800
vn 0.543800 -0.700500 0.462100
vn 0.388900 -0.769000 0.507300
vn 0.232900 -0.811800 0.535500
vn 0.077500 -0.832200 0.549000
vn -0.077500 -0.832200 0.549000
vn -0.232900 -0.811800 0.535500
vn -0.388900 -0.769000 0.507300
vn -0.543800 -0.700500 0.462100
vn -0.693300 -0.601500 0.396800
vn -0.828100 -0.467900 0.308700
vn -0.933500 -0.299300 0.197500
vn -0.992300 -0.103300 0.068200
vn -0.992300 0.103300 -0.068200
vn -0.933500 0.299300 -0.197500
vn -0.828100 0.467900 -0.308700
vn -0.693300 0.601500 -0.396800
vn -0.543800 0.700500 -0.462100
vn -0.388900 0.769000 -0.507300
vn -0.000000 0.550700 0.834700
vn -0.077500 0.832200 -0.549000
vn -0.232900 0.811800 -0.535500
vn -0.000000 -0.550700 -0.834700
vn 0.088000 0.831500 -0.548500
vn 0.262500 0.805500 -0.531400
vn 0.432200 0.752700 -0.496600
vn 0.592700 0.672300 -0.443500
vn 0.737700 0.563600 -0.371800
vn 0.859000 0.427400 -0.282000
vn 0.947300 0.267500 -0.176500
vn 0.994000 0.091100 -0.060100
vn 0.994000 -0.091100 0.060100
vn 0.947300 -0.267500 0.176500
vn 0.859000 -0.427400 0.282000
vn 0.737700 -0.563600 0.371800
vn 0.592700 -0.672300 0.443500
vn 0.432200 -0.752700 0.496600
vn 0.262500 -0.805500 0.531400
vn 0.088000 -0.831500 0.548500
vn -0.088000 -0.831500 0.548500
vn -0.262500 -0.805500 0.531400
vn -0.432200 -0.752700 0.496600
vn -0.592700 -0.672300 0.443500
vn -0.737700 -0.563600 0.371800
vn -0.859000 -0.427400 0.282000
vn -0.947300 -0.267500 0.176500
vn -0.994000 -0.091100 0.060100
vn -0.994000 0.091100 -0.060100
vn -0.947300 0.267500 -0.176500
vn -0.859000 0.427400 -0.282000
vn -0.737700 0.563600 -0.371800
vn -0.592700 0.672300 -0.443500
vn -0.432200 0.752700 -0.496600
vn -0.088000 0.831500 -0.548500
vn -0.262500 0.805500 -0.531400
vn 0.088000 -0.834600 -0.543800
vn 0.262500 -0.808400 -0.526800
vn 0.432200 -0.755500 -0.492300
vn 0.592700 -0.674800 -0.439700
vn 0.737700 -0.565700 -0.368600
vn 0.859000 -0.429000 -0.279600
vn 0.947300 -0.268500 -0.175000
vn 0.994000 -0.091500 -0.059600
vn 0.994000 0.091500 0.059600
vn 0.947300 0.268500 0.175000
vn 0.859000 0.429000 0.279600
vn 0.737700 0.565700 0.368600
vn 0.592700 0.674800 0.439700
vn 0.432200 0.755500 0.492300
vn 0.262500 0.808400 0.526800
vn 0.088000 0.834600 0.543800
vn -0.088000 0.834600 0.543800
vn -0.262500 0.808400 0.526800
vn -0.432200 0.755500 0.492300
vn -0.592700 0.674800 0.439700
vn -0.737700 0.565700 0.368600
vn -0.859000 0.429000 0.279600
vn -0.947300 0.268500 0.175000
vn -0.994000 0.091500 0.059600
vn -0.994000 -0.091500 -0.059600
vn -0.947300 -0.268500 -0.175000
vn -0.859000 -0.429000 -0.279600
vn -0.737700 -0.565700 -0.368600
vn -0.592700 -0.674800 -0.439700
vn -0.432200 -0.755500 -0.492300
vn -0.000000 0.546000 -0.837800
vn -0.088000 -0.834600 -0.543800
vn -0.262500 -0.808400 -0.526800
vn 0.000000 -0.546000 0.837800
vn -1.000000 0.000000 0.000000
vn 0.000000 0.000000 -1.000000
vn 1.000000 0.000000 0.000000
vn 0.000000 0.000000 1.000000
vn 0.000000 -1.000000 0.000000
vn 0.000000 1.000000 0.000000
usemtl Material
s off
f 1//1 2//1 4//1 3//1
f 3//2 4//2 6//2 5//2
f 5//3 6//3 8//3 7//3
f 7//4 8//4 10//4 9//4
f 9//5 10//5 12//5 11//5
f 11//6 12//6 14//6 13//6
f 13//7 14//7 16//7 15//7
f 15//8 16//8 18//8 17//8
f 17//9 18//9 20//9 19//9
f 19//10 20//10 22//10 21//10
f 21//11 22//11 24//11 23//11
f 23//12 24//12 26//12 25//12
f 25//13 26//13 28//13 27//13
f 27//14 28//14 30//14 29//14
f 29//15 30//15 32//15 31//15
f 31//16 32//16 34//16 33//16
f 33//17 34//17 36//17 35//17
f 35//18 36//18 38//18 37//18
f 37//19 38//19 40//19 39//19
f 39//20 40//20 42//20 41//20
f 41//21 42//21 44//21 43//21
f 43//22 44//22 46//22 45//22
f 45//23 46//23 48//23 47//23
f 47//24 48//24 50//24 49//24
f 49//25 50//25 52//25 51//25
f 51//26 52//26 54//26 53//26
f 53//27 54//27 56//27 55//27
f 55//28 56//28 58//28 57//28
f 57//29 58//29 60//29 59//29
f 59//30 60//30 62//30 61//30
f 4//31 2//31 64//31 62//31 60//31 58//31 56//31 54//31 52//31 50//31 48//31 46//31 44//31 42//31 40//31 38//31 36//31 34//31 32//31 30//31 28//31 26//31 24//31 22//31 20//31 18//31 16//31 14//31 12//31 10//31 8//31 6//31
f 63//32 64//32 2//32 1//32
f 61//33 62//33 64//33 63//33
f 1//34 3//34 5//34 7//34 9//34 11//34 13//34 15//34 17//34 19//34 21//34 23//34 25//34 27//34 29//34 31//34 33//34 35//34 37//34 39//34 41//34 43//34 45//34 47//34 49//34 51//34 53//34 55//34 57//34 59//34 61//34 63//34
f 65//35 66//35 68//35 67//35
f 67//36 68//36 70//36 69//36
f 69//37 70//37 72//37 71//37
f 71//38 72//38 74//38 73//38
f 73//39 74//39 76//39 75//39
f 75//40 76//40 78//40 77//40
f 77//41 78//41 80//41 79//41
f 79//42 80//42 82//42 81//42
f 81//43 82//43 84//43 83//43
f 83//44 84//44 86//44 85//44
f 85//45 86//45 88//45 87//45
f 87//46 88//46 90//46 89//46
f 89//47 90//47 92//47 91//47
f 91//48 92//48 94//48 93//48
f 93//49 94//49 96//49 95//49
f 95//50 96//50 98//50 97//50
f 97//51 98//51 100//51 99//51
f 99//52 100//52 102//52 101//52
f 101//53 102//53 104//53 103//53
f 103//54 104//54 106//54 105//54
f 105//55 106//55 108//55 107//55
f 107//56 108//56 110//56 109//56
f 109//57 110//57 112//57 111//57
f 111//58 112//58 114//58 113//58
f 113//59 114//59 116//59 115//59
f 115//60 116//60 118//60 117//60
f 117//61 118//61 120//61 119//61
f 119//62 120//62 122//62 121//62
f 121//63 122//63 124//63 123//63
f 123//64 124//64 126//64 125//64
f 68//65 66//65 128//65 126//65 124//65 122//65 120//65 118//65 116//65 114//65 112//65 110//65 108//65 106//65 104//65 102//65 100//65 98//65 96//65 94//65 92//65 90//65 88//65 86//65 84//65 82//65 80//65 78//65 76//65 74//65 72//65 70//65
f 127//66 128//66 66//66 65//66
f 125//67 126//67 128//67 127//67
f 65//68 67//68 69//68 71//68 73//68 75//68 77//68 79//68 81//68 83//68 85//68 87//68 89//68 91//68 93//68 95//68 97//68 99//68 101//68 103//68 105//68 107//68 109//68 111//68 113//68 115//68 117//68 119//68 121//68 123//68 125//68 127//68
f 129//69 130//69 132//69 131//69
f 131//70 132//70 134//70 133//70
f 133//71 134//71 136//71 135//71
f 135//72 136//72 138//72 137//72
f 137//73 138//73 140//73 139//73
f 139//74 140//74 142//74 141//74
f 141//75 142//75 144//75 143//75
f 143//76 144//76 146//76 145//76
f 145//77 146//77 148//77 147//77
f 147//78 148//78 150//78 149//78
f 149//79 150//79 152//79 151//79
f 151//80 152//80 154//80 153//80
f 153//81 154//81 156//81 155//81
f 155//82 156//82 158//82 157//82
f 157//83 158//83 160//83 159//83
f 159//84 160//84 162//84 161//84
f 161//85 162//85 164//85 163//85
f 163//86 164//86 166//86 165//86
f 165//87 166//87 168//87 167//87
f 167//88 168//88 170//88 169//88
f 169//89 170//89 172//89 171//89
f 171//90 172//90 174//90 173//90
f 173//91 174//91 176//91 175//91
f 175//92 176//92 178//92 177//92
f 177//93 178//93 180//93 179//93
f 179//94 180//94 182//94 181//94
f 181//95 182//95 184//95 183//95
f 183//96 184//96 186//96 185//96
f 185//97 186//97 188//97 187//97
f 187//98 188//98 190//98 189//98
f 132//65 130//65 192//65 190//65 188//65 186//65 184//65 182//65 180//65 178//65 176//65 174//65 172//65 170//65 168//65 166//65 164//65 162//65 160//65 158//65 156//65 154//65 152//65 150//65 148//65 146//65 144//65 142//65 140//65 138//65 136//65 134//65
f 191//99 192//99 130//99 129//99
f 189//100 190//100 192//100 191//100
f 129//68 131//68 133//68 135//68 137//68 139//68 141//68 143//68 145//68 147//68 149//68 151//68 153//68 155//68 157//68 159//68 161//68 163//68 165//68 167//68 169//68 171//68 173//68 175//68 177//68 179//68 181//68 183//68 185//68 187//68 189//68 191//68
f 193//101 194//101 196//101 195//101
f 195//102 196//102 198//102 197//102
f 197//103 198//103 200//103 199//103
f 199//104 200//104 202//104 201//104
f 201//105 202//105 204//105 203//105
f 203//106 204//106 206//106 205//106
f 205//107 206//107 208//107 207//107
f 207//108 208//108 210//108 209//108
f 209//109 210//109 212//109 211//109
f 211//110 212//110 214//110 213//110
f 213//111 214//111 216//111 215//111
f 215//112 216//112 218//112 217//112
f 217//113 218//113 220//113 219//113
f 219//114 220//114 222//114 221//114
f 221//115 222//115 224//115 223//115
f 223//116 224//116 226//116 225//116
f 225//117 226//117 228//117 227//117
f 227//118 228//118 230//118 229//118
f 229//119 230//119 232//119 231//119
f 231//120 232//120 234//120 233//120
f 233//121 234//121 236//121 235//121
f 235//122 236//122 238//122 237//122
f 237//123 238//123 240//123 239//123
f 239//124 240//124 242//124 241//124
f 241//125 242//125 244//125 243//125
f 243//126 244//126 246//126 245//126
f 245//127 246//127 248//127 247//127
f 247//128 248//128 250//128 249//128
f 249//129 250//129 252//129 251//129
f 251//130 252//130 254//130 253//130
f 196//131 194//131 256//131 254//131 252//131 250//131 248//131 246//131 244//131 242//131 240//131 238//131 236//131 234//131 232//131 230//131 228//131 226//131 224//131 222//131 220//131 218//131 216//131 214//131 212//131 210//131 208//131 206//131 204//131 202//131 200//131 198//131
f 255//132 256//132 194//132 193//132
f 253//133 254//133 256//133 255//133
f 193//134 195//134 197//134 199//134 201//134 203//134 205//134 207//134 209//134 211//134 213//134 215//134 217//134 219//134 221//134 223//134 225//134 227//134 229//134 231//134 233//134 235//134 237//134 239//134 241//134 243//134 245//134 247//134 249//134 251//134 253//134 255//134
f 258//135 260//135 259//135 257//135
f 260//136 264//136 263//136 259//136
f 264//137 262//137 261//137 263//137
f 262//138 258//138 257//138 261//138
f 257//139 259//139 263//139 261//139
f 262//140 264//140 260//140 258//140
f 265//139 266//139 267//139 268//139
f 269//140 272//140 271//140 270//140
f 265//137 269//137 270//137 266//137
f 266//138 270//138 271//138 267//138
f 267//135 271//135 272//135 268//135
f 269//136 265//136 268//136 272//136
l 272 273
